<svg width="74" height="120" viewBox="0 0 74 120" fill="none" xmlns="http://www.w3.org/2000/svg">
<path d="M7.19553 41.0746C9.03672 37.2098 11.4791 34.0134 14.133 30.9577C16.5892 28.1296 16.5731 25.1368 13.5061 23.0403C10.1823 20.7682 9.20135 17.2258 7.81342 13.9742C6.56813 11.0567 15.3465 0.0774229 18.5019 0.512581C22.01 0.996387 25.4378 2.10319 28.6813 3.58458C29.5223 3.9687 30.1954 4.23206 31.0365 3.82426C32.1188 3.29955 33.2021 2.48375 34.2482 3.9017C35.3331 5.37235 36.4476 7.03518 35.5734 8.78853C34.7543 10.4316 34.8509 11.7441 35.6245 13.2332C36.2655 14.4672 35.5267 16.0112 36.0035 17.0659C37.4126 20.1828 37.7338 23.3376 37.4088 26.6608C37.3741 27.0163 37.8276 27.4728 38.141 27.7999C39.6448 29.3693 40.2339 31.1714 39.2865 33.189C38.2824 35.3273 36.3874 36.3235 34.109 36.5576C33.0113 36.6704 31.8923 36.5771 30.7228 36.5771C30.483 43.5575 31.1204 50.3082 35.9303 56.11C38.1321 54.1715 40.0541 52.0367 41.9691 49.862C43.7343 47.8574 46.167 46.6554 46.5696 43.3707C46.8116 41.3967 49.2168 39.9704 50.8713 38.4336C52.3894 39.7931 51.4462 41.2629 51.2779 42.821C54.1505 40.8444 54.1434 36.915 57.0922 35.2047C59.4079 40.1317 56.9979 47.7496 52.394 49.9019C49.8554 51.0886 49.2437 52.5075 50.1032 55.2151C52.185 61.7737 52.829 68.577 52.9083 75.4448C52.9314 77.4416 52.2944 78.5156 50.1696 78.9163C46.702 79.5701 43.2609 79.4196 39.8016 79.1315C38.8881 79.0554 37.9891 78.5962 36.9738 79.219C36.7891 81.8859 37.6057 83.6013 40.5114 84.5788C48.7781 87.3596 57.0531 90.2051 64.2574 95.3554C68.6489 98.4948 72.1381 102.273 73.2894 107.775C74.2023 112.138 72.1081 115.803 67.766 117.09C62.9478 118.519 57.9183 118.251 52.9851 118.724C41.5492 119.821 30.098 118.461 18.6543 118.768C15.561 118.851 12.4682 119.045 9.38254 119.283C6.99216 119.468 8.33521 119.489 5.23665 119.489C2.70146 119.489 2.30089 119.586 1.85643 119.208C0.398683 117.967 -0.129747 116.945 1.51595 115.274C3.20559 113.559 5.28868 112.529 7.42278 111.537C8.33376 111.114 9.42914 110.994 10.2417 109.857C9.25891 108.184 8.16964 106.46 7.20778 104.668C4.24889 99.1555 4.12561 93.3358 5.71085 87.458C6.7383 83.6483 6.39675 80.2035 4.69879 76.5915C0.0341873 66.6687 1.73017 56.652 4.86533 46.719C5.45487 44.8511 6.34841 43.079 7.19553 41.0746Z" fill="url(#paint0_linear_276_3169)"/>
<defs>
<linearGradient id="paint0_linear_276_3169" x1="37" y1="0.5" x2="37" y2="119.5" gradientUnits="userSpaceOnUse">
<stop stop-color="#FF885B"/>
<stop offset="1" stop-color="#EF4F13"/>
</linearGradient>
</defs>
</svg>
